<svg width="15" height="16" viewBox="0 0 15 16" fill="none" xmlns="http://www.w3.org/2000/svg">
<path d="M0.643555 11.5098C0.643555 11.2358 0.867676 11.0117 1.1333 11.0117H2.41162L2.99268 9.18555H1.1333C0.867676 9.18555 0.643555 8.96143 0.643555 8.6958C0.643555 8.42188 0.867676 8.20605 1.1333 8.20605H3.30811L5.29199 1.99707C5.63232 0.859863 6.33789 0.328613 7.5083 0.328613C8.67871 0.328613 9.36768 0.859863 9.71631 1.99707L11.6919 8.20605H13.8584C14.1323 8.20605 14.3564 8.42188 14.3564 8.6958C14.3564 8.96143 14.1323 9.18555 13.8584 9.18555H12.0073L12.5884 11.0117H13.8584C14.1323 11.0117 14.3564 11.2358 14.3564 11.5098C14.3564 11.7754 14.1323 11.9995 13.8584 11.9995H12.9038L13.4683 13.7676C13.5347 14 13.5845 14.2158 13.5845 14.4316C13.5845 15.2451 13.0117 15.6768 12.2148 15.6768C11.4761 15.6768 11.0527 15.3281 10.8618 14.6226L10.0981 11.9995H4.90186L4.13818 14.6143C3.94727 15.3115 3.54883 15.6768 2.81006 15.6768C2.02979 15.6768 1.42383 15.2617 1.42383 14.4316C1.42383 14.1826 1.45703 14.0083 1.53174 13.7676L2.09619 11.9995H1.1333C0.867676 11.9995 0.643555 11.7754 0.643555 11.5098ZM7.4502 3.24219L6.00586 8.20605H8.99414L7.5498 3.24219H7.4502ZM5.18408 11.0117H9.81592L9.27637 9.18555H5.72363L5.18408 11.0117Z" fill="white"/>
</svg>
