<svg width="17" height="15" viewBox="0 0 17 15" fill="none" xmlns="http://www.w3.org/2000/svg">
<path d="M2.85156 13.7168C1.60352 13.7168 0.947266 13.0723 0.947266 11.8301V5.68945C0.947266 5.23242 1.00586 5.02734 1.19922 4.76367L2.35352 3.22266V2.28516C2.35352 1.32422 2.91016 0.791016 3.90625 0.791016H8.68164C9.67773 0.791016 10.2285 1.32422 10.2285 2.28516V3.22266L11.3887 4.76367C11.541 4.96289 11.5938 5.10938 11.6055 5.39648H10.4746C10.4102 5.29102 10.3398 5.25 10.2227 5.19141L9.20312 3.83789C9.0918 3.69141 9.0625 3.58008 9.0625 3.39258V2.4668C9.0625 2.13281 8.89844 1.95703 8.58203 1.95703H4.00586C3.68945 1.95703 3.52539 2.13281 3.52539 2.4668V3.39258C3.52539 3.58008 3.49609 3.69141 3.38477 3.83789L2.25977 5.33203C2.17773 5.44336 2.16602 5.51367 2.16602 5.70117V11.7012C2.16602 12.2285 2.44141 12.498 2.96289 12.498H8.96875L9.05078 13.4238C9.0625 13.5293 9.07422 13.623 9.09766 13.7168H2.85156ZM4.76758 3.60938C4.54492 3.60938 4.35742 3.42188 4.35742 3.19922C4.35742 2.97656 4.54492 2.7832 4.76758 2.7832H7.82031C8.03711 2.7832 8.22461 2.97656 8.22461 3.19922C8.22461 3.42188 8.04297 3.60938 7.82031 3.60938H4.76758ZM11.3711 14.748C10.4805 14.748 10.0352 14.2969 9.94141 13.3359L9.34375 7.08984C9.29688 6.61523 9.56641 6.29297 10.0234 6.29297H12.2734L12.3027 5.97656C12.3555 5.36719 12.5664 4.98047 13.0469 4.63477L14.9277 3.27539C15.5195 2.84766 16.1113 3.69141 15.5547 4.08984L13.5977 5.49609C13.4102 5.63086 13.334 5.77734 13.3164 6.04688L13.2988 6.29297H15.3613C15.8184 6.29297 16.0938 6.61523 16.0469 7.08984L15.4434 13.3359C15.3496 14.2969 14.9043 14.748 14.0195 14.748H11.3711ZM11.4297 13.5586H13.9551C14.1543 13.5586 14.248 13.4707 14.2715 13.2598L14.8223 7.48242H10.5684L11.1191 13.2598C11.1426 13.4707 11.2363 13.5586 11.4297 13.5586Z" fill="#EBEBF5" fill-opacity="0.6"/>
</svg>
