<svg width="390" height="315" viewBox="0 0 390 315" fill="none" xmlns="http://www.w3.org/2000/svg">
<g style="mix-blend-mode:soft-light" filter="url(#filter0_d_5070_776)">
<path d="M-78.9707 63.9141H-90.877V108.961H-91.458L-122.565 63.9141H-133.278V130H-121.307V84.9854H-120.758L-89.6191 130H-78.9707V63.9141ZM-30.832 62.0186L-6.19727 131.896H-23.0166L-28.4912 115.6H-50.6104L-56.0762 131.896H-72.8945L-48.2939 62.0186H-30.832ZM64.2529 63.9141V130H76.2246V110.316L83.5498 101.668L103.266 130H117.657L91.875 93.5693L117.432 63.9141H102.813L77.0312 94.2793H76.2246V63.9141H64.2529ZM261.606 63.9141H249.699V108.961H249.118L218.012 63.9141H207.299V130H219.271V84.9854H219.818L250.958 130H261.606V63.9141ZM309.745 62.0186L334.379 131.896H317.561L312.085 115.6H289.966L284.501 131.896H267.683L292.282 62.0186H309.745ZM404.829 63.9141V130H416.801V110.316L424.126 101.668L443.842 130H458.233L432.451 93.5693L458.008 63.9141H443.391L417.607 94.2793H416.801V63.9141H404.829ZM-46.9521 63.9141L-70.2178 130H-57.4395L-51.9736 113.704H-27.1289L-21.6533 130H-8.875L-32.1729 63.9141H-46.9521ZM293.625 63.9141L270.359 130H283.138L288.603 113.704H313.447L318.923 130H331.701L308.403 63.9141H293.625ZM-194.83 82.501C-194.83 78.2431 -193.669 74.4385 -191.31 71.1641L-191.305 71.1562C-188.958 67.9327 -185.787 65.4624 -181.856 63.7285C-177.923 61.9719 -173.515 61.1152 -168.668 61.1152C-163.765 61.1153 -159.379 61.9696 -155.559 63.7373C-151.737 65.4743 -148.673 67.9272 -146.437 71.1133L-146.026 71.7168C-144.041 74.7645 -143.025 78.2264 -142.959 82.0488L-142.926 83.9766H-158.078L-158.259 82.2832C-158.504 79.986 -159.499 78.2931 -161.271 77.0498L-161.278 77.0449C-163.088 75.7624 -165.554 75.0381 -168.83 75.0381C-171.142 75.0381 -173.019 75.3879 -174.515 76.0186C-176.051 76.6664 -177.115 77.4976 -177.82 78.459C-178.523 79.4168 -178.888 80.5001 -178.906 81.7715C-178.904 82.8427 -178.664 83.673 -178.257 84.3359C-177.771 85.0913 -177.106 85.7576 -176.223 86.3291C-175.259 86.9316 -174.178 87.45 -172.972 87.8779C-172.019 88.2161 -171.061 88.5135 -170.098 88.7705L-169.133 89.0146L-169.122 89.0166L-169.112 89.0195L-162.917 90.5684C-160.328 91.1728 -157.835 91.9889 -155.438 93.0186C-152.963 94.0729 -150.732 95.4109 -148.757 97.0361C-146.7 98.71 -145.068 100.737 -143.872 103.104C-142.639 105.547 -142.056 108.346 -142.056 111.445C-142.056 115.658 -143.138 119.443 -145.346 122.731L-145.35 122.736C-147.558 126.001 -150.721 128.504 -154.736 130.281L-154.74 130.283C-158.763 132.05 -163.545 132.896 -169.023 132.896C-174.356 132.896 -179.08 132.07 -183.149 130.359L-183.153 130.358C-187.214 128.641 -190.458 126.103 -192.812 122.727L-192.816 122.719C-195.163 119.318 -196.388 115.232 -196.571 110.552L-196.648 108.582H-181.14L-181.009 110.336C-180.861 112.318 -180.263 113.845 -179.301 115.022C-178.284 116.268 -176.948 117.22 -175.236 117.865C-173.456 118.528 -171.425 118.876 -169.12 118.876V120.771L-169.585 120.767C-171.743 120.725 -173.719 120.396 -175.515 119.778L-175.896 119.642C-177.772 118.936 -179.316 117.889 -180.53 116.503L-180.77 116.222C-182.017 114.694 -182.726 112.779 -182.898 110.478H-194.677C-194.505 114.866 -193.364 118.588 -191.256 121.643C-189.126 124.697 -186.179 127.02 -182.415 128.612C-178.629 130.204 -174.165 131 -169.023 131C-164.062 131 -159.791 130.282 -156.21 128.845L-155.503 128.548C-151.994 126.995 -149.26 124.884 -147.301 122.216L-146.92 121.675C-144.941 118.728 -143.951 115.318 -143.951 111.445C-143.951 108.584 -144.489 106.089 -145.564 103.959C-146.64 101.829 -148.103 100.012 -149.953 98.5059C-151.782 97.0001 -153.857 95.7522 -156.181 94.7627C-158.195 93.8968 -160.283 93.1877 -162.445 92.6348L-163.376 92.4072L-169.572 90.8584C-170.589 90.6164 -171.599 90.3316 -172.604 90.0049L-173.605 89.6641C-174.939 89.1908 -176.155 88.6103 -177.252 87.9219C-178.212 87.3007 -178.999 86.5646 -179.613 85.7129L-179.865 85.3408C-180.411 84.4562 -180.719 83.4312 -180.787 82.2666L-180.802 81.7588C-180.78 80.1024 -180.296 78.6286 -179.35 77.3379C-178.462 76.1278 -177.206 75.1544 -175.581 74.417L-175.251 74.2725C-173.466 73.5196 -171.325 73.1426 -168.83 73.1426C-165.281 73.1426 -162.397 73.9286 -160.182 75.499C-158.084 76.9713 -156.838 78.9917 -156.442 81.5605L-156.374 82.0811H-144.854C-144.915 78.5922 -145.836 75.4817 -147.617 72.749L-147.984 72.207C-149.88 69.5046 -152.447 67.3604 -155.686 65.7734L-156.342 65.4629C-159.649 63.9301 -163.467 63.1163 -167.796 63.0205L-168.668 63.0107C-173.293 63.0107 -177.435 63.828 -181.092 65.4629C-184.749 67.0762 -187.642 69.346 -189.771 72.2715L-190.155 72.8262C-192.008 75.6256 -192.935 78.8507 -192.935 82.501L-192.93 82.9414C-192.835 87.4697 -191.265 91.1198 -188.223 93.8916C-185.06 96.7311 -180.758 98.8498 -175.315 100.248L-167.797 102.185C-165.431 102.787 -163.365 103.476 -161.602 104.25C-159.816 105.003 -158.429 105.95 -157.439 107.09C-156.45 108.208 -155.944 109.628 -155.923 111.349C-155.944 113.242 -156.514 114.899 -157.633 116.318L-157.848 116.577C-158.947 117.853 -160.424 118.863 -162.279 119.609C-164.237 120.384 -166.517 120.771 -169.12 120.771V118.876C-166.701 118.876 -164.667 118.515 -162.977 117.847C-161.247 117.15 -159.991 116.23 -159.113 115.134C-158.276 114.066 -157.839 112.83 -157.818 111.348C-157.839 110.021 -158.22 109.068 -158.858 108.346L-158.87 108.332C-159.624 107.464 -160.746 106.667 -162.338 105.996L-162.351 105.991L-162.363 105.985C-164.011 105.262 -165.974 104.605 -168.265 104.021L-168.27 104.021L-175.788 102.084C-181.434 100.633 -186.039 98.3998 -189.489 95.3018L-189.5 95.293C-193.082 92.0296 -194.83 87.6994 -194.83 82.501ZM145.747 82.501C145.747 78.2432 146.907 74.4385 149.267 71.1641L149.272 71.1562C151.619 67.9327 154.79 65.4624 158.72 63.7285C162.653 61.9718 167.061 61.1152 171.908 61.1152C176.812 61.1152 181.198 61.9694 185.019 63.7373C188.84 65.4743 191.903 67.9273 194.14 71.1133C196.395 74.305 197.546 77.9718 197.617 82.0488L197.651 83.9766H182.499L182.317 82.2832C182.072 79.986 181.077 78.2931 179.306 77.0498L179.299 77.0449C177.489 75.7622 175.024 75.0381 171.747 75.0381C169.435 75.0381 167.557 75.3878 166.062 76.0186C164.525 76.6664 163.461 77.4976 162.756 78.459C162.054 79.4165 161.69 80.4996 161.671 81.7705C161.673 82.8421 161.913 83.6729 162.319 84.3359C162.805 85.0913 163.471 85.7576 164.354 86.3291C165.318 86.9317 166.399 87.4499 167.605 87.8779C168.559 88.2161 169.517 88.5135 170.479 88.7705L171.443 89.0146L171.454 89.0166L171.465 89.0195L177.66 90.5684C180.249 91.1728 182.742 91.989 185.138 93.0186C187.617 94.0744 189.852 95.4146 191.829 97.043C193.882 98.7156 195.51 100.74 196.704 103.104C197.938 105.547 198.521 108.346 198.521 111.445C198.521 115.658 197.438 119.443 195.23 122.731L195.228 122.736C193.019 126.001 189.857 128.504 185.841 130.281L185.836 130.283C181.813 132.05 177.032 132.895 171.554 132.896C166.221 132.896 161.496 132.07 157.427 130.359L157.424 130.358C153.363 128.641 150.119 126.103 147.766 122.727L147.761 122.719C145.414 119.318 144.189 115.233 144.006 110.552L143.929 108.582H159.437L159.568 110.336C159.717 112.318 160.313 113.845 161.275 115.022C162.293 116.268 163.629 117.22 165.341 117.865C167.121 118.528 169.152 118.876 171.456 118.876V120.771L170.991 120.767C168.68 120.722 166.575 120.347 164.68 119.642C162.804 118.936 161.26 117.889 160.046 116.503L159.808 116.222C158.56 114.694 157.85 112.779 157.678 110.478H145.9C146.072 114.866 147.212 118.588 149.32 121.643C151.45 124.697 154.398 127.02 158.162 128.612C161.712 130.105 165.857 130.898 170.598 130.991L171.554 131C176.515 131 180.786 130.282 184.367 128.845L185.074 128.548C188.583 126.995 191.317 124.884 193.275 122.216L193.657 121.675C195.513 118.912 196.498 115.742 196.614 112.166L196.626 111.445C196.626 108.763 196.153 106.403 195.208 104.363L195.013 103.959C193.937 101.829 192.474 100.012 190.624 98.5059C188.796 97.0001 186.72 95.7522 184.396 94.7627C182.095 93.7731 179.696 92.9881 177.2 92.4072L171.005 90.8584C169.65 90.5357 168.304 90.1373 166.971 89.6641C165.637 89.1909 164.422 88.6101 163.325 87.9219C162.365 87.3008 161.578 86.5645 160.964 85.7129L160.711 85.3408C160.165 84.4562 159.858 83.4312 159.79 82.2666L159.775 81.7588C159.796 80.2058 160.222 78.8136 161.056 77.582L161.228 77.3379C162.115 76.128 163.371 75.1543 164.995 74.417L165.325 74.2725C167.111 73.5195 169.252 73.1426 171.747 73.1426L172.404 73.1523C175.654 73.2443 178.317 74.0267 180.395 75.499C182.632 77.0694 183.901 79.2631 184.202 82.0811H195.723C195.658 78.3596 194.614 75.0681 192.592 72.207C190.57 69.3246 187.784 67.0762 184.234 65.4629C180.706 63.8281 176.598 63.0107 171.908 63.0107C167.283 63.0107 163.142 63.8281 159.485 65.4629L158.809 65.7734C155.469 67.3629 152.801 69.5287 150.805 72.2715C148.696 75.1972 147.643 78.6073 147.643 82.501L147.647 82.9414C147.742 87.4697 149.311 91.1198 152.354 93.8916C155.516 96.7312 159.818 98.8498 165.261 100.248L172.779 102.185C175.146 102.787 177.211 103.476 178.975 104.25C180.76 105.003 182.148 105.95 183.138 107.09C184.127 108.208 184.633 109.628 184.654 111.349C184.633 113.242 184.063 114.899 182.944 116.318L182.729 116.577C181.63 117.853 180.153 118.863 178.298 119.609L177.927 119.75C176.054 120.431 173.896 120.771 171.456 120.771V118.876C173.875 118.876 175.91 118.515 177.6 117.847C179.329 117.15 180.587 116.23 181.464 115.134C182.301 114.066 182.737 112.83 182.758 111.348C182.737 110.021 182.357 109.068 181.718 108.346L181.706 108.332C180.953 107.464 179.83 106.667 178.238 105.996L178.226 105.991L178.213 105.985C176.565 105.262 174.602 104.605 172.312 104.021L172.307 104.021L164.788 102.084C159.142 100.633 154.537 98.3997 151.087 95.3018L151.077 95.293C147.495 92.0296 145.747 87.6994 145.747 82.501ZM7.08105 96.957C7.08106 91.9877 7.86613 87.7818 9.43652 84.3398C10.9087 81.0931 12.9106 78.5837 15.4414 76.8115L15.9551 76.4668C18.7302 74.6598 21.9143 73.7559 25.5068 73.7559L26.2588 73.7695C27.9973 73.8307 29.6289 74.1054 31.1533 74.5947C32.9173 75.1325 34.4875 75.9401 35.8643 77.0156C37.241 78.0912 38.3924 79.4033 39.3174 80.9521C40.1846 82.3842 40.7966 84.0146 41.1533 85.8438L41.2217 86.2119H53.29C52.8262 82.7631 51.8699 79.6736 50.4229 76.9434L50.127 76.4023C48.535 73.5197 46.5022 71.0885 44.0283 69.1094C41.5545 67.1088 38.7364 65.5921 35.5742 64.5596C32.4119 63.527 28.9911 63.0107 25.3125 63.0107C19.5475 63.0108 14.3846 64.3551 9.82422 67.0439L9.39941 67.2998C5.03928 69.9771 1.57798 73.7751 -0.985352 78.6934L-1.22949 79.1699C-3.71283 84.1299 -4.95507 90.0588 -4.95508 96.957C-4.95508 104.056 -3.64206 110.144 -1.01758 115.221C1.60692 120.298 5.19917 124.181 9.75977 126.87C14.3202 129.559 19.5045 130.903 25.3125 130.903C29.0032 130.903 32.3825 130.393 35.4492 129.372L36.0586 129.161C39.0835 128.052 41.7491 126.546 44.0557 124.643L44.5127 124.256C46.9219 122.148 48.8692 119.717 50.3535 116.964C51.8594 114.21 52.8383 111.263 53.29 108.122L41.2217 108.058C40.856 109.994 40.1887 111.715 39.2207 113.221L38.8555 113.774C37.9779 115.04 36.9266 116.125 35.7031 117.028C34.3264 118.061 32.7668 118.846 31.0244 119.384L30.373 119.565C28.8391 119.961 27.2062 120.158 25.4746 120.158V118.263C27.283 118.263 28.9438 118.027 30.4678 117.571C32.0135 117.094 33.3748 116.405 34.5664 115.512L34.5771 115.503C35.7805 114.614 36.7927 113.522 37.6162 112.212L37.6211 112.203L37.626 112.195C38.4494 110.914 39.0334 109.427 39.3584 107.706L39.6523 106.153L55.4756 106.238L55.166 108.392C54.6824 111.754 53.6324 114.919 52.0166 117.873L52.0156 117.872C50.4219 120.826 48.3337 123.431 45.7607 125.683L45.7539 125.689C43.1579 127.938 40.1363 129.684 36.7109 130.94L36.7002 130.944C33.2394 132.19 29.4362 132.799 25.3125 132.799C19.1997 132.799 13.6769 131.38 8.79688 128.503C3.90454 125.618 0.0726173 121.459 -2.70215 116.092C-5.4954 110.688 -6.85059 104.287 -6.85059 96.957C-6.85058 89.6049 -5.48387 83.2001 -2.66504 77.8145C0.13088 72.451 3.97127 68.2944 8.86133 65.4111C13.7391 62.5351 19.2399 61.1153 25.3125 61.1152C29.17 61.1152 32.7919 61.657 36.1631 62.7578C39.531 63.8576 42.5525 65.48 45.2119 67.6289C47.8872 69.7691 50.0801 72.3943 51.7871 75.4854C53.5285 78.5781 54.646 82.0786 55.168 85.959L55.457 88.1074H39.627L39.3535 86.5361C39.0447 84.7607 38.4847 83.2354 37.6963 81.9336L37.6904 81.9238C36.8814 80.5692 35.8845 79.4356 34.6982 78.5088C33.5149 77.5843 32.1545 76.882 30.6006 76.4082L30.5879 76.4043L30.5742 76.4004C29.0376 75.9071 27.3527 75.6514 25.5068 75.6514C22.2491 75.6514 19.4304 76.4651 16.9893 78.0547L16.9805 78.0605C14.5568 79.62 12.6063 81.94 11.1631 85.123L11.1611 85.127C9.73293 88.2573 8.97657 92.178 8.97656 96.957C8.97656 101.82 9.73249 105.791 11.1572 108.939C12.6222 112.107 14.5742 114.409 16.9775 115.948C19.4203 117.478 22.2334 118.263 25.4746 118.263V120.158L24.8096 120.147C21.5083 120.045 18.5568 119.178 15.9551 117.544C13.2016 115.78 11.0284 113.177 9.43652 109.735C7.86618 106.272 7.08105 102.012 7.08105 96.957ZM347.658 96.957C347.658 92.2982 348.348 88.3105 349.729 84.9941L350.014 84.3398C351.486 81.093 353.488 78.5837 356.019 76.8115L356.532 76.4668C359.307 74.6599 362.491 73.7559 366.083 73.7559C368.105 73.7559 369.988 74.0354 371.73 74.5947C373.494 75.1325 375.065 75.94 376.441 77.0156C377.818 78.0912 378.97 79.4033 379.895 80.9521C380.762 82.3841 381.374 84.0147 381.73 85.8438L381.798 86.2119H393.866C393.402 82.7632 392.447 79.6736 391 76.9434L390.704 76.4023C389.212 73.7001 387.332 71.3946 385.064 69.4863L384.605 69.1094C382.286 67.2338 379.664 65.7836 376.74 64.7588L376.151 64.5596C372.989 63.527 369.568 63.0107 365.89 63.0107C360.124 63.0107 354.961 64.3549 350.4 67.0439C345.84 69.733 342.237 73.6165 339.591 78.6934L339.347 79.1699C336.863 84.1299 335.622 90.0589 335.622 96.957L335.626 97.6201C335.705 104.436 337.016 110.303 339.559 115.221C342.183 120.298 345.775 124.181 350.336 126.87C354.897 129.559 360.081 130.903 365.89 130.903C369.58 130.903 372.959 130.393 376.025 129.372L376.635 129.161C379.66 128.052 382.326 126.546 384.633 124.643L385.09 124.256C387.499 122.148 389.445 119.717 390.93 116.964C392.436 114.21 393.414 111.263 393.866 108.122L381.798 108.058C381.432 109.994 380.765 111.715 379.797 113.221L379.432 113.774C378.554 115.04 377.504 116.125 376.28 117.028C374.904 118.061 373.344 118.846 371.602 119.384L370.95 119.565C369.416 119.961 367.783 120.158 366.051 120.158V118.263C367.858 118.263 369.519 118.028 371.042 117.572C372.589 117.095 373.95 116.406 375.143 115.512L375.154 115.503C376.357 114.614 377.369 113.522 378.192 112.212L378.197 112.203L378.203 112.195C379.027 110.914 379.611 109.427 379.936 107.706L380.229 106.153L396.053 106.238L395.742 108.392C395.259 111.75 394.21 114.911 392.598 117.862C391.003 120.82 388.914 123.429 386.338 125.683L386.33 125.689C383.734 127.938 380.712 129.685 377.287 130.94L377.277 130.944C373.817 132.19 370.013 132.799 365.89 132.799C359.777 132.799 354.254 131.38 349.374 128.503C344.482 125.618 340.65 121.459 337.875 116.092C335.082 110.688 333.727 104.287 333.727 96.957C333.727 89.8346 335.009 83.6012 337.651 78.3223L337.911 77.8145C340.707 72.4509 344.548 68.2945 349.438 65.4111C354.316 62.5352 359.817 61.1152 365.89 61.1152C369.747 61.1152 373.368 61.657 376.739 62.7578C380.107 63.8576 383.129 65.4801 385.788 67.6289C388.459 69.7656 390.649 72.3862 392.354 75.4707C394.1 78.567 395.222 82.0727 395.745 85.959L396.034 88.1074H380.204L379.931 86.5361C379.622 84.7607 379.061 83.2354 378.272 81.9336L378.267 81.9238C377.458 80.5692 376.461 79.4356 375.274 78.5088C374.091 77.5844 372.731 76.8819 371.178 76.4082L371.164 76.4043L371.151 76.4004C369.615 75.9071 367.929 75.6514 366.083 75.6514C362.825 75.6514 360.007 76.4653 357.566 78.0547L357.558 78.0605C355.134 79.62 353.184 81.9399 351.74 85.123L351.738 85.127C350.31 88.2573 349.554 92.1779 349.554 96.957C349.554 101.82 350.31 105.791 351.734 108.939L352.015 109.523C353.445 112.392 355.302 114.505 357.555 115.948C359.997 117.478 362.81 118.263 366.051 118.263V120.158L365.386 120.147C362.305 120.052 359.528 119.29 357.057 117.86L356.532 117.544C353.951 115.89 351.88 113.499 350.319 110.371L350.014 109.735C348.541 106.488 347.759 102.542 347.667 97.8955L347.658 96.957ZM301.272 77.4668L310.217 104.089H291.827L300.756 77.4668H301.272ZM-39.3047 77.4668L-30.3594 104.089H-48.749L-39.8203 77.4668H-39.3047ZM294.462 102.193H307.581L301.015 82.6523L294.462 102.193ZM-46.1143 102.193H-32.9961L-39.5615 82.6543L-46.1143 102.193ZM-77.0752 131.896H-90.6123L-119.411 90.2627V131.896H-135.174V62.0186H-121.57L-92.7725 103.722V62.0186H-77.0752V131.896ZM78.1201 90.0664L101.937 62.0186H121.567L94.2773 93.6836L121.32 131.896H102.275L83.4014 104.775L78.1201 111.01V131.896H62.3574V62.0186H78.1201V90.0664ZM263.502 131.896H249.964L221.166 90.2646V131.896H205.403V62.0186H219.006L247.804 103.722V62.0186H263.502V131.896ZM418.696 90.0674L442.513 62.0186H462.144L434.854 93.6836L461.897 131.896H442.852L423.979 104.774L418.696 111.01V131.896H402.934V62.0186H418.696V90.0674Z" fill="white"/>
</g>
<defs>
<filter id="filter0_d_5070_776" x="-317.805" y="0.536724" width="901.106" height="314.094" filterUnits="userSpaceOnUse" color-interpolation-filters="sRGB">
<feFlood flood-opacity="0" result="BackgroundImageFix"/>
<feColorMatrix in="SourceAlpha" type="matrix" values="0 0 0 0 0 0 0 0 0 0 0 0 0 0 0 0 0 0 127 0" result="hardAlpha"/>
<feOffset dy="60.5785"/>
<feGaussianBlur stdDeviation="60.5785"/>
<feComposite in2="hardAlpha" operator="out"/>
<feColorMatrix type="matrix" values="0 0 0 0 0 0 0 0 0 0 0 0 0 0 0 0 0 0 0.25 0"/>
<feBlend mode="normal" in2="BackgroundImageFix" result="effect1_dropShadow_5070_776"/>
<feBlend mode="normal" in="SourceGraphic" in2="effect1_dropShadow_5070_776" result="shape"/>
</filter>
</defs>
</svg>
