<svg width="37" height="35" viewBox="0 0 37 35" fill="none" xmlns="http://www.w3.org/2000/svg">
<path d="M7.87793 34.1748C7.54492 33.9277 7.34082 33.5947 7.26562 33.1758C7.20117 32.7568 7.271 32.2573 7.4751 31.6772L10.8428 21.6548L2.23828 15.4673C1.7334 15.1128 1.38428 14.7476 1.19092 14.3716C0.997559 13.9956 0.965332 13.6089 1.09424 13.2114C1.22314 12.8247 1.47559 12.54 1.85156 12.3574C2.22754 12.1641 2.72705 12.0674 3.3501 12.0674H13.9043L17.1108 2.06104C17.3042 1.47021 17.5459 1.02441 17.8359 0.723633C18.1367 0.422852 18.4912 0.272461 18.8994 0.272461C19.3184 0.272461 19.6729 0.422852 19.9629 0.723633C20.2637 1.02441 20.5107 1.47021 20.7041 2.06104L23.9106 12.0674H34.4648C35.0879 12.0674 35.5874 12.1641 35.9634 12.3574C36.3394 12.54 36.5918 12.8247 36.7207 13.2114C36.8496 13.6089 36.8174 13.9956 36.624 14.3716C36.4307 14.7476 36.0815 15.1128 35.5767 15.4673L26.9722 21.6548L30.3398 31.6772C30.5439 32.2573 30.6084 32.7568 30.5332 33.1758C30.4688 33.5947 30.27 33.9277 29.937 34.1748C29.604 34.4326 29.228 34.5186 28.8091 34.4326C28.3901 34.3574 27.9336 34.1426 27.4395 33.7881L18.8994 27.52L10.3755 33.7881C9.88135 34.1426 9.4248 34.3574 9.00586 34.4326C8.58691 34.5186 8.21094 34.4326 7.87793 34.1748Z" fill="#EA71C5"/>
<path d="M7.87793 34.1748C7.54492 33.9277 7.34082 33.5947 7.26562 33.1758C7.20117 32.7568 7.271 32.2573 7.4751 31.6772L10.8428 21.6548L2.23828 15.4673C1.7334 15.1128 1.38428 14.7476 1.19092 14.3716C0.997559 13.9956 0.965332 13.6089 1.09424 13.2114C1.22314 12.8247 1.47559 12.54 1.85156 12.3574C2.22754 12.1641 2.72705 12.0674 3.3501 12.0674H13.9043L17.1108 2.06104C17.3042 1.47021 17.5459 1.02441 17.8359 0.723633C18.1367 0.422852 18.4912 0.272461 18.8994 0.272461C19.3184 0.272461 19.6729 0.422852 19.9629 0.723633C20.2637 1.02441 20.5107 1.47021 20.7041 2.06104L23.9106 12.0674H34.4648C35.0879 12.0674 35.5874 12.1641 35.9634 12.3574C36.3394 12.54 36.5918 12.8247 36.7207 13.2114C36.8496 13.6089 36.8174 13.9956 36.624 14.3716C36.4307 14.7476 36.0815 15.1128 35.5767 15.4673L26.9722 21.6548L30.3398 31.6772C30.5439 32.2573 30.6084 32.7568 30.5332 33.1758C30.4688 33.5947 30.27 33.9277 29.937 34.1748C29.604 34.4326 29.228 34.5186 28.8091 34.4326C28.3901 34.3574 27.9336 34.1426 27.4395 33.7881L18.8994 27.52L10.3755 33.7881C9.88135 34.1426 9.4248 34.3574 9.00586 34.4326C8.58691 34.5186 8.21094 34.4326 7.87793 34.1748Z" fill="url(#paint0_radial_5001_529)"/>
<defs>
<radialGradient id="paint0_radial_5001_529" cx="0" cy="0" r="1" gradientTransform="matrix(-35.6163 -34.9375 8.02527 -109.581 39.3898 26.7715)" gradientUnits="userSpaceOnUse">
<stop stop-color="#F69EA3"/>
<stop offset="1" stop-color="#E970C4"/>
</radialGradient>
</defs>
</svg>
